<svg width="58" height="37" viewBox="0 0 58 37" fill="none" xmlns="http://www.w3.org/2000/svg">
<rect x="0.4" y="1.09238" width="57.2" height="35.2" rx="4.6" stroke="white" stroke-opacity="0.4" stroke-width="0.8"/>
<path d="M16.1675 13.7689C15.7078 14.3129 14.9722 14.742 14.2366 14.6807C14.1447 13.9451 14.5048 13.1636 14.9262 12.6808C15.386 12.1215 16.1905 11.723 16.8418 11.6924C16.9185 12.4586 16.6196 13.2095 16.1675 13.7689ZM16.8342 14.8263C15.7691 14.765 14.8573 15.4317 14.3515 15.4317C13.8382 15.4317 13.0643 14.857 12.2214 14.8723C11.1257 14.8876 10.1066 15.5083 9.5472 16.4967C8.39784 18.4736 9.24837 21.4007 10.3594 23.0098C10.9035 23.8067 11.5548 24.6802 12.413 24.6496C13.2252 24.6189 13.547 24.1209 14.5278 24.1209C15.5162 24.1209 15.7997 24.6496 16.6579 24.6342C17.5468 24.6189 18.1061 23.8373 18.6502 23.0405C19.2708 22.1363 19.5237 21.2551 19.539 21.2091C19.5237 21.1938 17.8226 20.5425 17.8073 18.5809C17.792 16.9412 19.1482 16.1596 19.2095 16.1136C18.4433 14.9796 17.2479 14.857 16.8342 14.8263V14.8263ZM22.9871 12.6042V24.55H24.8414V20.4659H27.4083C29.753 20.4659 31.4005 18.8568 31.4005 16.5274C31.4005 14.198 29.7837 12.6042 27.4696 12.6042H22.9871ZM24.8414 14.1674H26.9792C28.5884 14.1674 29.5078 15.0255 29.5078 16.535C29.5078 18.0445 28.5884 18.9104 26.9716 18.9104H24.8414V14.1674ZM34.7873 24.6419C35.952 24.6419 37.0324 24.0519 37.5228 23.1171H37.5611V24.55H39.2775V18.6039C39.2775 16.8799 37.8982 15.7688 35.7757 15.7688C33.8065 15.7688 32.3506 16.8952 32.297 18.443H33.9674C34.1053 17.7074 34.7873 17.2247 35.7221 17.2247C36.8561 17.2247 37.4921 17.7534 37.4921 18.7265V19.3855L35.178 19.5234C33.0249 19.6537 31.8602 20.5348 31.8602 22.0673C31.8602 23.6151 33.0632 24.6419 34.7873 24.6419V24.6419ZM35.2853 23.2244C34.2969 23.2244 33.6686 22.7493 33.6686 22.0214C33.6686 21.2704 34.2739 20.8337 35.4309 20.7647L37.4921 20.6344V21.3087C37.4921 22.4275 36.542 23.2244 35.2853 23.2244V23.2244ZM41.5685 27.7988C43.3769 27.7988 44.2274 27.1092 44.9706 25.0174L48.2272 15.8837H46.3422L44.1584 22.9408H44.1201L41.9363 15.8837H39.9977L43.1393 24.5806L42.9707 25.1093C42.6872 26.0058 42.2275 26.3506 41.4076 26.3506C41.262 26.3506 40.9785 26.3353 40.8636 26.32V27.7529C40.9709 27.7835 41.4306 27.7988 41.5685 27.7988V27.7988Z" fill="white"/>
</svg>
