<svg width="43" height="43" viewBox="0 0 43 43" fill="none" xmlns="http://www.w3.org/2000/svg">
<path d="M5.98291 13.2427L10.4829 11.7427H17.9829H28.4829L32.4829 13.2427V30.2427H12.4829H8.48291L2.48291 29.7427L1.98291 24.2427V17.7427L5.48291 17.2427L5.98291 13.2427Z" fill="#F3F3F1"/>
<path d="M28.3169 2.98376C27.8866 2.08375 26.9488 1.52832 25.9528 1.52832C24.8197 1.52832 23.8134 2.25347 23.4551 3.32833L23.1225 4.32776C22.6563 5.72663 21.3448 6.6712 19.8688 6.6712H14.0471C11.8339 6.6712 9.86761 8.08721 9.16818 10.1872L8.62646 11.8141H27.4837C29.4466 8.87064 29.7243 5.9272 28.3169 2.98376Z" fill="#EE7333"/>
<path d="M30.9124 37.5286C34.6995 37.5286 37.7695 34.4585 37.7695 30.6714C37.7695 26.8843 34.6995 23.8142 30.9124 23.8142C27.1252 23.8142 24.0552 26.8843 24.0552 30.6714C24.0552 34.4585 27.1252 37.5286 30.9124 37.5286Z" fill="#EE7333"/>
<path d="M8.6272 30.6714H5.19861C3.31289 30.6714 1.77002 29.1285 1.77002 27.2428V18.6713C1.77002 17.7285 2.54145 16.957 3.48432 16.957H6.91291C5.97004 16.957 5.19861 17.7285 5.19861 18.6713V27.2428C5.19861 29.1285 6.74148 30.6714 8.6272 30.6714Z" fill="#D5DBE1"/>
<path d="M12.0549 11.8142C10.1692 11.8142 8.62635 13.3571 8.62635 15.2428V16.9571H5.19775V15.2428C5.19775 13.3571 6.74062 11.8142 8.62635 11.8142H12.0549Z" fill="#D5DBE1"/>
<path d="M17.4722 6.67139C15.2608 6.67139 13.2893 8.09425 12.6036 10.1857L12.0551 11.8143H8.62646L9.17504 10.1857C9.86076 8.09425 11.8322 6.67139 14.0436 6.67139H17.4722Z" fill="#C95518"/>
<path d="M32.6266 37.3057C32.0781 37.46 31.5124 37.5286 30.9124 37.5286C27.1238 37.5286 24.0552 34.46 24.0552 30.6714C24.0552 26.8828 27.1238 23.8142 30.9124 23.8142C31.5124 23.8142 32.0781 23.8828 32.6266 24.0371C29.6609 24.7914 27.4838 27.4828 27.4838 30.6714C27.4838 33.86 29.6609 36.5514 32.6266 37.3057Z" fill="#C95518"/>
<path d="M15.484 31.9572H5.1982C2.59761 31.9572 0.483887 29.8435 0.483887 27.2429V18.6714C0.483887 17.0171 1.82961 15.6714 3.4839 15.6714H27.484V18.2428H3.4839C3.25076 18.2428 3.05533 18.4383 3.05533 18.6714V27.2429C3.05533 28.424 4.01705 29.3857 5.1982 29.3857H15.484V31.9572Z" fill="black"/>
<path d="M6.48306 16.9572H3.91162V15.2429C3.91162 12.6423 6.02535 10.5286 8.62593 10.5286H29.1975C31.7981 10.5286 33.9118 12.6423 33.9118 15.2429H31.3403C31.3403 14.0617 30.3786 13.1 29.1975 13.1H8.62593C7.44478 13.1 6.48306 14.0617 6.48306 15.2429V16.9572Z" fill="black"/>
<path d="M28.5526 12.5273L26.4131 11.101C28.1206 8.53815 28.364 6.06442 27.1554 3.53755C26.9445 3.09869 26.4731 2.81412 25.9503 2.81412C25.3708 2.81412 24.8565 3.18441 24.6731 3.7347L24.3405 4.73242C23.6977 6.661 21.9011 7.95701 19.8679 7.95701H14.0462C12.3833 7.95701 10.9125 9.01644 10.3879 10.5953L9.84618 12.2222L7.40674 11.4079L7.94846 9.78102C8.82446 7.15129 11.2742 5.38556 14.0462 5.38556H19.8679C20.7919 5.38556 21.6097 4.79584 21.9011 3.91984L22.2337 2.92212C22.7685 1.31925 24.2617 0.242676 25.9503 0.242676C27.4554 0.242676 28.8388 1.09982 29.4748 2.4284C31.0846 5.79528 30.7743 9.19301 28.5526 12.5273Z" fill="black"/>
<path d="M30.9119 38.8144C26.4222 38.8144 22.769 35.1612 22.769 30.6715C22.769 26.1817 26.4222 22.5286 30.9119 22.5286C35.4017 22.5286 39.0548 26.1817 39.0548 30.6715C39.0548 35.1612 35.4017 38.8144 30.9119 38.8144ZM30.9119 25.1C27.8399 25.1 25.3405 27.5994 25.3405 30.6715C25.3405 33.7435 27.8399 36.2429 30.9119 36.2429C33.984 36.2429 36.4834 33.7435 36.4834 30.6715C36.4834 27.5994 33.984 25.1 30.9119 25.1Z" fill="black"/>
<path d="M29.6265 19.1001H32.1979V25.1001H29.6265V19.1001Z" fill="black"/>
<path d="M29.6265 36.2429H32.1979V42.243H29.6265V36.2429Z" fill="black"/>
<path d="M19.3403 29.3857H25.3404V31.9572H19.3403V29.3857Z" fill="black"/>
<path d="M36.4839 29.3857H42.4839V31.9572H36.4839V29.3857Z" fill="black"/>
<path d="M21.813 23.3989L23.6313 21.5806L27.8739 25.8233L26.0557 27.6416L21.813 23.3989Z" fill="black"/>
<path d="M33.9331 35.5212L35.7514 33.703L39.9941 37.9456L38.1758 39.7639L33.9331 35.5212Z" fill="black"/>
<path d="M21.813 37.9438L26.0557 33.7012L27.8739 35.5195L23.6313 39.7621L21.813 37.9438Z" fill="black"/>
<path d="M33.936 25.8237L38.1787 21.5811L39.997 23.3993L35.7543 27.642L33.936 25.8237Z" fill="black"/>
</svg>
