<svg width="43" height="43" viewBox="0 0 43 43" fill="none" xmlns="http://www.w3.org/2000/svg">
<path d="M37.6709 37.4302H5.2959C3.36215 37.4302 1.7959 35.8639 1.7959 33.9302V7.68018H41.1709V33.9302C41.1709 35.8639 39.6046 37.4302 37.6709 37.4302Z" fill="#F3F3F1"/>
<path d="M1.7959 7.68018H41.1709V5.05518C41.1709 3.12143 39.6046 1.55518 37.6709 1.55518H5.2959C3.36215 1.55518 1.7959 3.12143 1.7959 5.05518V7.68018Z" fill="#EE7333"/>
<path d="M1.7959 38.3052C1.7959 39.7542 2.9719 40.9302 4.4209 40.9302H15.7959C17.2449 40.9302 18.4209 39.7542 18.4209 38.3052V14.6802C18.4209 13.2312 17.2449 12.0552 15.7959 12.0552H4.4209C2.9719 12.0552 1.7959 13.2312 1.7959 14.6802V38.3052Z" fill="#F3F3F1"/>
<path d="M15.7964 12.0552C14.8304 12.0552 14.0464 12.8392 14.0464 13.8052C14.0464 14.7712 13.2624 15.5552 12.2964 15.5552H7.92139C6.95539 15.5552 6.17139 14.7712 6.17139 13.8052C6.17139 12.8392 5.38739 12.0552 4.42139 12.0552H15.7964Z" fill="#EE7333"/>
<path d="M9.2334 1.55518H5.2959C3.36215 1.55518 1.7959 3.12143 1.7959 5.05518V7.68018H5.7334V5.05518C5.7334 3.12143 7.29965 1.55518 9.2334 1.55518Z" fill="#C95518"/>
<path d="M10.1089 13.8052C10.1089 12.8392 9.32489 12.0552 8.35889 12.0552H4.42139C5.38739 12.0552 6.17139 12.8392 6.17139 13.8052C6.17139 14.7712 6.95539 15.5552 7.92139 15.5552H11.8589C10.8929 15.5552 10.1089 14.7712 10.1089 13.8052Z" fill="#C95518"/>
<path d="M5.7334 38.3052V14.6802C5.7334 13.2312 6.9094 12.0552 8.3584 12.0552H4.4209C2.9719 12.0552 1.7959 13.2312 1.7959 14.6802V38.3052C1.7959 39.7542 2.9719 40.9302 4.4209 40.9302H8.3584C6.9094 40.9302 5.7334 39.7542 5.7334 38.3052Z" fill="#D5DBE1"/>
<path d="M5.7334 7.68018V11.6177L1.7959 13.3677V7.68018H5.7334Z" fill="#D5DBE1"/>
<path d="M12.2964 16.8677H7.92139C6.23264 16.8677 4.85889 15.4939 4.85889 13.8052C4.85889 13.5637 4.66289 13.3677 4.42139 13.3677V10.7427C6.11014 10.7427 7.48389 12.1164 7.48389 13.8052C7.48389 14.0467 7.67989 14.2427 7.92139 14.2427H12.2964C12.5379 14.2427 12.7339 14.0467 12.7339 13.8052C12.7339 12.1164 14.1076 10.7427 15.7964 10.7427V13.3677C15.5549 13.3677 15.3589 13.5637 15.3589 13.8052C15.3589 15.4939 13.9851 16.8677 12.2964 16.8677Z" fill="black"/>
<path d="M15.7964 42.2427H4.42139C2.25139 42.2427 0.483887 40.4769 0.483887 38.3052V14.6802C0.483887 12.5084 2.25139 10.7427 4.42139 10.7427H15.7964C17.9664 10.7427 19.7339 12.5084 19.7339 14.6802V38.3052C19.7339 40.4769 17.9664 42.2427 15.7964 42.2427ZM4.42139 13.3677C3.69864 13.3677 3.10889 13.9557 3.10889 14.6802V38.3052C3.10889 39.0297 3.69864 39.6177 4.42139 39.6177H15.7964C16.5191 39.6177 17.1089 39.0297 17.1089 38.3052V14.6802C17.1089 13.9557 16.5191 13.3677 15.7964 13.3677H4.42139Z" fill="black"/>
<path d="M37.6714 38.7427H23.2339V36.1177H37.6714C38.8771 36.1177 39.8589 35.1359 39.8589 33.9302V5.05518C39.8589 3.84943 38.8771 2.86768 37.6714 2.86768H5.29639C4.09064 2.86768 3.10889 3.84943 3.10889 5.05518V7.24268H0.483887V5.05518C0.483887 2.40043 2.64164 0.242676 5.29639 0.242676H37.6714C40.3261 0.242676 42.4839 2.40043 42.4839 5.05518V33.9302C42.4839 36.5849 40.3261 38.7427 37.6714 38.7427Z" fill="black"/>
<path d="M19.7339 6.36768H41.1714V8.99268H19.7339V6.36768Z" fill="black"/>
<path d="M25.7988 23.8159L32.361 17.2538L34.2171 19.1099L27.655 25.6721L25.7988 23.8159Z" fill="black"/>
<path d="M31.9839 26.4927H26.2964C25.5719 26.4927 24.9839 25.9047 24.9839 25.1802V19.4927H27.6089V23.8677H31.9839V26.4927Z" fill="black"/>
</svg>
