<svg width="43" height="42" viewBox="0 0 43 42" fill="none" xmlns="http://www.w3.org/2000/svg">
<path d="M1.7959 10.7428V27.1998C1.7959 30.9168 4.84265 33.9303 8.60164 33.9303H25.6151C29.3741 33.9303 32.4209 32.2293 32.4209 28.5123V10.9615L1.7959 10.7428Z" fill="#F3F3F1"/>
<path d="M28.5098 14.4615H5.49203C3.64228 14.4615 1.96578 13.114 1.80828 11.2713C1.71553 10.188 2.11103 9.1923 2.82678 8.49405C3.45853 7.84655 4.33353 7.46155 5.29603 7.46155H28.5098C30.4523 7.46155 32.0238 9.0453 32.0098 10.9878C31.9958 12.911 30.433 14.4615 28.5098 14.4615Z" fill="#EE7333"/>
<path d="M31.1089 22.3365C36.6662 22.3365 41.1714 17.8314 41.1714 12.274C41.1714 6.71668 36.6662 2.21155 31.1089 2.21155C25.5515 2.21155 21.0464 6.71668 21.0464 12.274C21.0464 17.8314 25.5515 22.3365 31.1089 22.3365Z" fill="#EE7333"/>
<path d="M32.8589 22.179C32.2989 22.284 31.7039 22.3365 31.1089 22.3365C25.5439 22.3365 21.0464 17.839 21.0464 12.274C21.0464 6.70904 25.5439 2.21155 31.1089 2.21155C31.7039 2.21155 32.2989 2.26405 32.8589 2.36905C28.1339 3.19155 24.5464 7.30404 24.5464 12.274C24.5464 17.244 28.1339 21.3565 32.8589 22.179Z" fill="#C95518"/>
<path d="M12.1034 33.9391H8.60339C4.8409 33.9391 1.7959 30.9116 1.7959 27.2016V10.7341L5.2959 10.7516V27.2016C5.2959 30.9116 8.34089 33.9391 12.1034 33.9391Z" fill="#D5DBE1"/>
<path d="M8.98887 14.4615H5.48887C3.65137 14.4615 1.97138 13.114 1.81388 11.2765C1.70888 10.1915 2.11138 9.19405 2.82888 8.49405C3.45887 7.84655 4.33387 7.46155 5.29637 7.46155H8.79637C7.83387 7.46155 6.95887 7.84655 6.32887 8.49405C5.61137 9.19405 5.20887 10.1915 5.31387 11.2765C5.47137 13.114 7.15137 14.4615 8.98887 14.4615Z" fill="#C95518"/>
<path d="M25.6156 35.2428H8.60038C4.12563 35.2428 0.483887 31.6343 0.483887 27.1998V10.7428H3.10888V27.1998C3.10888 30.187 5.57288 32.6178 8.60213 32.6178H25.6174C27.2694 32.6178 31.1106 32.217 31.1106 28.5123H33.7339C33.7339 32.6003 30.5471 35.2428 25.6156 35.2428Z" fill="black"/>
<path d="M14.9214 15.774H5.29638C2.64338 15.774 0.483887 13.6163 0.483887 10.9615C0.483887 9.66129 0.991386 8.45205 1.91189 7.5543C2.78688 6.65655 3.99613 6.14905 5.29638 6.14905H14.9739V8.77404H5.29638C4.71188 8.77404 4.16763 8.99979 3.76863 9.40929C3.33463 9.83279 3.10888 10.377 3.10888 10.9615C3.10888 12.1673 4.09063 13.149 5.29638 13.149H14.9214V15.774Z" fill="black"/>
<path d="M7.4834 34.5865H10.1084V41.5865H7.4834V34.5865Z" fill="black"/>
<path d="M24.1089 34.5865H26.7339V41.5865H24.1089V34.5865Z" fill="black"/>
<path d="M31.1089 23.649C24.8369 23.649 19.7339 18.546 19.7339 12.274C19.7339 6.00204 24.8369 0.899048 31.1089 0.899048C37.3809 0.899048 42.4839 6.00204 42.4839 12.274C42.4839 18.546 37.3809 23.649 31.1089 23.649ZM31.1089 3.52405C26.2841 3.52405 22.3589 7.44929 22.3589 12.274C22.3589 17.0988 26.2841 21.024 31.1089 21.024C35.9336 21.024 39.8589 17.0988 39.8589 12.274C39.8589 7.44929 35.9336 3.52405 31.1089 3.52405Z" fill="black"/>
<path d="M33.3834 16.824L29.8834 14.199C29.5544 13.9505 29.3584 13.562 29.3584 13.149V7.46155H31.9834V12.4928L34.9584 14.724L33.3834 16.824Z" fill="black"/>
</svg>
