<svg width="48" height="43" viewBox="0 0 48 43" fill="none" xmlns="http://www.w3.org/2000/svg">
<path d="M35.301 5.87698V32.5111C35.301 34.7648 33.4571 36.6087 31.2035 36.6087H6.61807C4.36441 36.6087 2.52051 34.7648 2.52051 32.5111V5.87698C2.52051 3.62332 4.36441 1.77942 6.61807 1.77942H31.2035C33.4571 1.77942 35.301 3.62332 35.301 5.87698Z" fill="#F3F3F1"/>
<path d="M16.862 12.0232H2.52051V26.3647H16.862C19.1259 26.3647 20.9595 24.531 20.9595 22.2671V16.1208C20.9595 13.8569 19.1259 12.0232 16.862 12.0232Z" fill="#EE7333"/>
<path d="M45.5446 32.511C45.5446 37.0368 41.8752 40.7061 37.3494 40.7061C32.8237 40.7061 29.1543 37.0368 29.1543 32.511C29.1543 27.3891 37.3494 18.1696 37.3494 18.1696C37.3494 18.1696 45.5446 27.3891 45.5446 32.511Z" fill="#EE7333"/>
<path d="M2.52051 12.0232H6.61807V26.3647H2.52051V12.0232Z" fill="#C95518"/>
<path d="M39.3987 40.4398C38.7431 40.6242 38.067 40.7061 37.3499 40.7061C32.8221 40.7061 29.1548 37.0388 29.1548 32.511C29.1548 27.3891 37.3499 18.1696 37.3499 18.1696C37.3499 18.1696 38.2104 19.153 39.3987 20.6486C36.9811 23.7422 33.2523 29.0486 33.2523 32.511C33.2523 36.3218 35.8543 39.5383 39.3987 40.4398Z" fill="#C95518"/>
<path d="M6.61807 12.3429V5.87698C6.61807 3.62332 8.46198 1.77942 10.7156 1.77942H6.61807C4.36441 1.77942 2.52051 3.62332 2.52051 5.87698V12.3429H6.61807Z" fill="#D5DBE1"/>
<path d="M6.61807 32.5111V26.6208H2.52051V32.5111C2.52051 34.7648 4.36441 36.6087 6.61807 36.6087H10.7156C8.46198 36.6087 6.61807 34.7648 6.61807 32.5111Z" fill="#D5DBE1"/>
<path d="M23.0083 38.1451H6.61803C3.51003 38.1451 0.983887 35.619 0.983887 32.511V5.87683C0.983887 2.76882 3.51003 0.242676 6.61803 0.242676H31.2034C34.3114 0.242676 36.8376 2.76882 36.8376 5.87683V12.0232H33.7644V5.87683C33.7644 4.46521 32.615 3.31585 31.2034 3.31585H6.61803C5.20642 3.31585 4.05706 4.46521 4.05706 5.87683V32.511C4.05706 33.9226 5.20642 35.072 6.61803 35.072H23.0083V38.1451Z" fill="black"/>
<path d="M16.862 27.9012H2.52051V24.828H16.862C18.2736 24.828 19.423 23.6787 19.423 22.2671V16.1207C19.423 14.7091 18.2736 13.5597 16.862 13.5597H2.52051V10.4866H16.862C19.97 10.4866 22.4961 13.0127 22.4961 16.1207V22.2671C22.4961 25.3751 19.97 27.9012 16.862 27.9012Z" fill="black"/>
<path d="M37.3499 42.2428C31.9841 42.2428 27.6182 37.8768 27.6182 32.5111C27.6182 26.965 35.3236 18.1368 36.2005 17.1493C36.7844 16.4937 37.9133 16.4937 38.4972 17.1493C39.3761 18.1368 47.0795 26.965 47.0795 32.5111C47.0816 37.8768 42.7156 42.2428 37.3499 42.2428ZM37.3499 20.5421C34.7971 23.6583 30.6913 29.3375 30.6913 32.5111C30.6913 36.1825 33.6785 39.1696 37.3499 39.1696C41.0213 39.1696 44.0084 36.1825 44.0084 32.5111C44.0084 29.3375 39.9027 23.6583 37.3499 20.5421Z" fill="black"/>
</svg>
