<svg width="43" height="44" viewBox="0 0 43 44" fill="none" xmlns="http://www.w3.org/2000/svg">
<path d="M15.105 14.9755C18.6276 14.9755 21.4834 12.1361 21.4834 8.63348C21.4834 5.1309 18.6276 2.2915 15.105 2.2915C11.5823 2.2915 8.72656 5.1309 8.72656 8.63348C8.72656 12.1361 11.5823 14.9755 15.105 14.9755Z" fill="#EE7333"/>
<path d="M27.8623 14.9755C31.385 14.9755 34.2407 12.1361 34.2407 8.63348C34.2407 5.1309 31.385 2.2915 27.8623 2.2915C24.3396 2.2915 21.4839 5.1309 21.4839 8.63348C21.4839 12.1361 24.3396 14.9755 27.8623 14.9755Z" fill="#EE7333"/>
<path d="M39.0439 23.6356C40.0109 22.5239 40.6157 21.0929 40.6157 19.5097C40.6157 16.0074 37.7597 13.1677 34.2373 13.1677C30.7149 13.1677 27.8589 16.0074 27.8589 19.5097C27.8589 21.0947 28.4637 22.5257 29.4306 23.6356H39.0439Z" fill="#EE7333"/>
<path d="M26.29 23.6356C27.257 22.5239 27.8618 21.0929 27.8618 19.5097C27.8618 16.0074 25.0058 13.1677 21.4834 13.1677C17.961 13.1677 15.105 16.0074 15.105 19.5097C15.105 21.0947 15.7098 22.5257 16.6767 23.6356H26.29Z" fill="#EE7333"/>
<path d="M13.5352 23.63C14.5021 22.5182 15.1069 21.0872 15.1069 19.5041C15.1069 16.0018 12.2509 13.1621 8.72849 13.1621C5.2061 13.1621 2.3501 16.0018 2.3501 19.5041C2.3501 21.0891 2.9549 22.5182 3.92183 23.63H13.5352Z" fill="#EE7333"/>
<path d="M2.3501 23.6356V24.5636C2.81676 34.3819 11.2168 42.1957 21.4834 42.1957C31.7501 42.1957 40.1501 34.3819 40.6168 24.5636V23.6356H2.3501Z" fill="#F3F3F1"/>
<path d="M12.9285 8.63348C12.9285 5.86617 14.7205 3.53874 17.2069 2.67199C16.5461 2.44184 15.8461 2.2915 15.1069 2.2915C11.5845 2.2915 8.72852 5.13119 8.72852 8.63348C8.72852 12.1358 11.5845 14.9755 15.1069 14.9755C15.8461 14.9755 16.5461 14.8251 17.2069 14.595C14.7205 13.7282 12.9285 11.3989 12.9285 8.63348Z" fill="#C95518"/>
<path d="M25.6839 8.63348C25.6839 5.86617 27.4778 3.53874 29.9623 2.67199C29.3015 2.44184 28.6015 2.2915 27.8623 2.2915C24.3399 2.2915 21.4839 5.13119 21.4839 8.63348C21.4839 12.1358 24.3399 14.9755 27.8623 14.9755C28.6015 14.9755 29.3015 14.8251 29.9623 14.595C27.4778 13.7282 25.6839 11.3989 25.6839 8.63348Z" fill="#C95518"/>
<path d="M36.3373 13.5482C35.6765 13.3181 34.9765 13.1677 34.2373 13.1677C30.7149 13.1677 27.8589 16.0074 27.8589 19.5097C27.8589 21.0947 28.4637 22.5257 29.4306 23.6356H33.6306C32.6637 22.5239 32.0589 21.0929 32.0589 19.5097C32.0608 16.7424 33.8528 14.415 36.3373 13.5482V13.5482Z" fill="#C95518"/>
<path d="M23.5834 13.5482C22.9226 13.3181 22.2226 13.1677 21.4834 13.1677C17.961 13.1677 15.105 16.0074 15.105 19.5097C15.105 21.0947 15.7098 22.5257 16.6767 23.6356H20.8767C19.9098 22.5239 19.305 21.0929 19.305 19.5097C19.305 16.7424 21.0989 14.415 23.5834 13.5482V13.5482Z" fill="#C95518"/>
<path d="M10.8285 13.5426C10.1677 13.3124 9.4677 13.1621 8.7285 13.1621C5.2061 13.1621 2.3501 16.0018 2.3501 19.5041C2.3501 21.0891 2.9549 22.5182 3.92183 23.63H8.12184C7.1549 22.5182 6.5501 21.0872 6.5501 19.5041C6.5501 16.7368 8.34397 14.4093 10.8285 13.5426V13.5426Z" fill="#C95518"/>
<path d="M6.5501 24.5636V23.6356H2.3501V24.5636C2.81676 34.3819 11.2168 42.1957 21.4834 42.1957C22.1946 42.1957 22.8928 42.1493 23.5834 42.0769C14.2949 41.0969 6.98503 33.7026 6.5501 24.5636Z" fill="#D5DBE1"/>
<path d="M21.484 43.5877C10.4763 43.5877 1.45655 35.2616 0.95255 24.6286L0.950684 23.6356H3.75068V24.5636C4.18375 33.6413 11.9734 40.8037 21.484 40.8037C30.9947 40.8037 38.7843 33.6413 39.2192 24.4987L39.2174 23.6356H42.0174V24.5636C41.5115 35.2616 32.4918 43.5877 21.484 43.5877V43.5877Z" fill="black"/>
<path d="M0.483887 22.2437H42.4839V25.0276H0.483887V22.2437Z" fill="black"/>
<path d="M14.5812 24.5563L12.483 22.7132C13.2782 21.8168 13.7001 20.7032 13.7001 19.4968C13.7001 17.9767 13.0318 16.5829 11.8652 15.6716C11.8484 15.6586 11.8185 15.6326 11.7905 15.6066C11.6897 15.5472 11.5982 15.4767 11.5161 15.3932L12.5185 14.3779L13.0244 13.1158C13.3865 13.2588 13.6049 13.4759 13.7206 13.591C15.4417 14.9217 16.502 17.1137 16.502 19.4949C16.5001 21.3936 15.8374 23.1438 14.5812 24.5563ZM11.9846 15.7031H11.9865C11.9865 15.705 11.9865 15.7031 11.9846 15.7031Z" fill="black"/>
<path d="M2.86962 24.5561C1.61335 23.1437 0.950684 21.3935 0.950684 19.4966C0.950684 15.2389 4.44322 11.7756 8.73468 11.7756C9.67735 11.7756 10.5957 11.9371 11.4675 12.2563C11.5533 12.2805 11.6355 12.3102 11.712 12.3491C11.8576 12.4215 11.9995 12.4995 12.1451 12.6071L11.3181 13.7115L11.3275 15.1164H11.3088C11.0307 15.1164 10.76 15.0348 10.5304 14.8826C9.95922 14.6692 9.35628 14.5615 8.73282 14.5615C5.98508 14.5615 3.74882 16.7757 3.74882 19.4985C3.74882 20.7067 4.17068 21.8185 4.96588 22.7149L2.86962 24.5561Z" fill="black"/>
<path d="M23.8345 14.9885C23.6665 14.9885 23.4817 14.9588 23.3249 14.8994C22.091 14.4409 20.8758 14.4409 19.642 14.8994C19.4852 14.9588 19.319 14.9885 19.151 14.9885L19.1398 14.1662L18.0366 12.6109C18.2588 12.4457 18.4716 12.3622 18.6134 12.3047C18.6676 12.2824 18.7217 12.2657 18.7777 12.2508C20.5678 11.6105 22.4084 11.6142 24.2004 12.2546C24.2526 12.2676 24.3049 12.2843 24.3534 12.3047C24.4953 12.3604 24.7081 12.4457 24.9302 12.6109L23.8345 14.0623V14.9885Z" fill="black"/>
<path d="M15.6467 24.5674C14.3737 23.1605 13.7017 21.4066 13.7017 19.4968C13.7017 17.1341 14.7582 14.944 16.6006 13.4889C16.735 13.3775 16.9142 13.2309 17.1923 13.1195C17.3585 13.0527 17.5358 13.0193 17.715 13.0193V14.3927H19.1337L18.2451 15.2762L18.4393 15.5899C17.1737 16.5921 16.5017 17.9878 16.5017 19.4968C16.5017 20.7087 16.9273 21.8168 17.7299 22.7058L15.6467 24.5674Z" fill="black"/>
<path d="M27.321 24.5673L25.2397 22.7058C26.0424 21.8167 26.468 20.7087 26.468 19.4967C26.468 17.9878 25.7978 16.5921 24.6256 15.6678C24.6013 15.6474 24.5901 15.6381 24.592 15.6381C24.4818 15.5787 24.3792 15.5063 24.2896 15.4191L25.2677 14.3779L25.7754 13.1195C26.0517 13.2309 26.2328 13.3775 26.3392 13.4647C28.2096 14.944 29.2661 17.134 29.2661 19.4967C29.268 21.4066 28.596 23.1605 27.321 24.5673V24.5673ZM24.7301 15.7012H24.732C24.732 15.7031 24.7301 15.7012 24.7301 15.7012Z" fill="black"/>
<path d="M28.3862 24.5562C27.1318 23.1438 26.4673 21.3936 26.4673 19.4968C26.4673 17.1155 27.5257 14.9236 29.3737 13.4833C29.3643 13.4777 29.5827 13.2606 29.9449 13.1177L30.4507 14.3816L31.4699 15.3783C31.3878 15.46 31.2889 15.5379 31.1843 15.6029C31.1526 15.6326 31.1209 15.6604 31.1022 15.6753C29.9355 16.5865 29.2673 17.9804 29.2673 19.5005C29.2673 20.7087 29.6891 21.8205 30.4843 22.7169L28.3862 24.5562Z" fill="black"/>
<path d="M40.0992 24.5561L38.0011 22.7131C38.7963 21.8166 39.2181 20.703 39.2181 19.4966C39.2181 16.7739 36.9819 14.5596 34.2341 14.5596C33.6219 14.5596 33.0264 14.6654 32.4627 14.8715C32.2293 15.0292 31.9419 15.1164 31.6581 15.1164L31.6488 13.7115L30.8237 12.6071C30.9693 12.4995 31.1112 12.4215 31.2568 12.3491C31.3427 12.3065 31.4304 12.273 31.5237 12.2489C32.3899 11.9353 33.3008 11.7756 34.236 11.7756C38.5275 11.7756 42.02 15.2389 42.02 19.4966C42.0181 21.3935 41.3555 23.1437 40.0992 24.5561V24.5561Z" fill="black"/>
<path d="M15.1051 16.3657C10.8155 16.3657 7.32666 12.8968 7.32666 8.63169C7.32666 4.36658 10.8155 0.897705 15.1051 0.897705C19.3928 0.897705 22.8835 4.36658 22.8835 8.63169C22.8835 12.8968 19.3947 16.3657 15.1051 16.3657ZM15.1051 3.68357C12.3592 3.68357 10.1267 5.90336 10.1267 8.63354C10.1267 11.3637 12.3592 13.5835 15.1051 13.5835C17.8491 13.5835 20.0835 11.3637 20.0835 8.63354C20.0835 5.90336 17.8509 3.68357 15.1051 3.68357Z" fill="black"/>
<path d="M27.8624 16.3657C23.5747 16.3657 20.084 12.8968 20.084 8.63169C20.084 4.36658 23.5728 0.897705 27.8624 0.897705C32.152 0.897705 35.6408 4.36658 35.6408 8.63169C35.6408 12.8968 32.1501 16.3657 27.8624 16.3657ZM27.8624 3.68357C25.1184 3.68357 22.884 5.90336 22.884 8.63354C22.884 11.3637 25.1165 13.5835 27.8624 13.5835C30.6083 13.5835 32.8408 11.3637 32.8408 8.63354C32.8408 5.90336 30.6064 3.68357 27.8624 3.68357Z" fill="black"/>
</svg>
