<svg width="43" height="43" viewBox="0 0 43 43" fill="none" xmlns="http://www.w3.org/2000/svg">
<path d="M18.0692 37.4475H5.50655C3.38056 37.4475 1.64111 35.708 1.64111 33.582V9.42305C1.64111 7.29706 3.38056 5.55762 5.50655 5.55762H11.3047H23.8674H29.6655C31.7915 5.55762 33.531 7.29706 33.531 9.42305V16.1876V37.4475H18.0692Z" fill="#F3F3F1"/>
<path d="M5.98973 33.582V9.42305C5.98973 7.29706 7.72918 5.55762 9.85517 5.55762H5.50655C3.38056 5.55762 1.64111 7.29706 1.64111 9.42305V33.582C1.64111 35.708 3.38056 37.4475 5.50655 37.4475H9.85517C7.72918 37.4475 5.98973 35.708 5.98973 33.582Z" fill="#D5DBE1"/>
<path d="M21.9351 8.45666H13.2379C12.171 8.45666 11.3052 7.5908 11.3052 6.52394V3.62486C11.3052 2.558 12.171 1.69214 13.2379 1.69214H21.9351C23.002 1.69214 23.8678 2.558 23.8678 3.62486V6.52394C23.8678 7.5908 23.002 8.45666 21.9351 8.45666Z" fill="#EE7333"/>
<path d="M15.6538 6.52394V3.62486C15.6538 2.558 16.5196 1.69214 17.5865 1.69214H13.2379C12.171 1.69214 11.3052 2.558 11.3052 3.62486V6.52394C11.3052 7.5908 12.171 8.45666 13.2379 8.45666H17.5865C16.5196 8.45666 15.6538 7.5908 15.6538 6.52394Z" fill="#C95518"/>
<path d="M18.0695 38.8969H5.50687C2.57494 38.8969 0.191895 36.5138 0.191895 33.5819V9.42289C0.191895 6.49095 2.57494 4.10791 5.50687 4.10791H11.305V7.00699H5.50687C4.17523 7.00699 3.09097 8.09124 3.09097 9.42289V33.5819C3.09097 34.9135 4.17523 35.9978 5.50687 35.9978H18.0695V38.8969Z" fill="black"/>
<path d="M34.9808 16.1874H32.0817V9.42289C32.0817 8.09125 30.9975 7.00699 29.6658 7.00699H23.8677V4.10791H29.6658C32.5978 4.10791 34.9808 6.49095 34.9808 9.42289V16.1874Z" fill="black"/>
<path d="M21.9345 9.90627H13.2372C11.3722 9.90627 9.85498 8.38909 9.85498 6.52401V3.62493C9.85498 1.75986 11.3722 0.242676 13.2372 0.242676H21.9345C23.7996 0.242676 25.3167 1.75986 25.3167 3.62493V6.52401C25.3167 8.38909 23.7996 9.90627 21.9345 9.90627ZM13.2372 3.14175C12.9705 3.14175 12.7541 3.35822 12.7541 3.62493V6.52401C12.7541 6.79073 12.9705 7.00719 13.2372 7.00719H21.9345C22.2012 7.00719 22.4177 6.79073 22.4177 6.52401V3.62493C22.4177 3.35822 22.2012 3.14175 21.9345 3.14175H13.2372Z" fill="black"/>
<path d="M31.1807 40.3101C36.5177 40.3101 40.8443 35.9836 40.8443 30.6465C40.8443 25.3094 36.5177 20.9829 31.1807 20.9829C25.8436 20.9829 21.5171 25.3094 21.5171 30.6465C21.5171 35.9836 25.8436 40.3101 31.1807 40.3101Z" fill="#EE7333"/>
<path d="M25.2994 30.6465C25.2994 25.9577 28.6411 22.0498 33.0728 21.1704C32.4601 21.0486 31.8281 20.9829 31.1807 20.9829C25.8444 20.9829 21.5171 25.3103 21.5171 30.6465C21.5171 35.9827 25.8444 40.3101 31.1807 40.3101C31.8281 40.3101 32.4601 40.2444 33.0709 40.1226C28.6392 39.2432 25.2994 35.3353 25.2994 30.6465Z" fill="#C95518"/>
<path d="M31.1803 42.2427C24.7849 42.2427 19.584 37.0417 19.584 30.6464C19.584 24.251 24.7849 19.05 31.1803 19.05C37.5757 19.05 42.7766 24.251 42.7766 30.6464C42.7766 37.0417 37.5757 42.2427 31.1803 42.2427ZM31.1803 21.9491C26.3852 21.9491 22.4831 25.8513 22.4831 30.6464C22.4831 35.4414 26.3852 39.3436 31.1803 39.3436C35.9754 39.3436 39.8775 35.4414 39.8775 30.6464C39.8775 25.8513 35.9773 21.9491 31.1803 21.9491Z" fill="black"/>
<path d="M33.5389 35.0551L30.1566 31.6728C29.8841 31.4003 29.7314 31.0331 29.7314 30.6465V25.3315H32.6305V30.0454L35.5876 33.0025L33.5389 35.0551Z" fill="black"/>
</svg>
