<svg width="58" height="37" viewBox="0 0 58 37" fill="none" xmlns="http://www.w3.org/2000/svg">
<rect x="0.4" y="1.09238" width="57.2" height="35.2" rx="4.6" stroke="white" stroke-opacity="0.4" stroke-width="0.8"/>
<path d="M27.9297 19.6318V24.2515H26.4517V12.8431H30.3717C30.8396 12.8334 31.3049 12.9156 31.7406 13.0852C32.1762 13.2547 32.5737 13.5081 32.9101 13.8307C33.2499 14.1337 33.5204 14.5054 33.7032 14.9207C33.8861 15.336 33.9773 15.7853 33.9705 16.2384C33.9802 16.6939 33.8905 17.1461 33.7075 17.564C33.5245 17.982 33.2525 18.3557 32.9101 18.6597C32.2247 19.3078 31.3785 19.6315 30.3717 19.6309H27.9297V19.6318ZM27.9297 14.2476V18.23H30.4085C30.6802 18.238 30.9506 18.1897 31.2025 18.0881C31.4543 17.9865 31.6819 17.834 31.8709 17.6402C32.0589 17.459 32.2083 17.2422 32.3103 17.0028C32.4123 16.7633 32.4649 16.506 32.4649 16.2461C32.4649 15.9862 32.4123 15.7289 32.3103 15.4894C32.2083 15.25 32.0589 15.0332 31.8709 14.852C31.6843 14.6541 31.4574 14.4978 31.2053 14.3935C30.9532 14.2891 30.6816 14.2391 30.4085 14.2467H27.9297V14.2476ZM37.3764 16.191C38.4689 16.191 39.3313 16.4805 39.9635 17.0594C40.5957 17.6384 40.9115 18.4321 40.9109 19.4407V24.2515H39.4971V23.1682H39.4329C38.8208 24.0603 38.0068 24.5063 36.9909 24.5063C36.1236 24.5063 35.398 24.2515 34.8142 23.7417C34.534 23.5078 34.3099 23.2147 34.1584 22.8841C34.0069 22.5534 33.9317 22.1933 33.9384 21.8301C33.9384 21.0224 34.2462 20.3801 34.8619 19.9031C35.4776 19.4261 36.2996 19.187 37.3278 19.1858C38.2054 19.1858 38.9283 19.3451 39.4962 19.6637V19.3287C39.4979 19.0811 39.444 18.8363 39.3384 18.6119C39.2328 18.3876 39.0782 18.1893 38.8857 18.0316C38.4949 17.6819 37.9855 17.4912 37.4591 17.4973C36.6334 17.4973 35.9801 17.8426 35.499 18.5332L34.1972 17.7203C34.9133 16.7008 35.9731 16.191 37.3764 16.191V16.191ZM35.4641 21.862C35.4632 22.0485 35.5071 22.2326 35.5924 22.3988C35.6777 22.5651 35.8018 22.7087 35.9544 22.8178C36.2813 23.0728 36.687 23.2078 37.1029 23.2001C37.7266 23.1991 38.3245 22.9529 38.7655 22.5156C39.2551 22.0586 39.4999 21.5225 39.4999 20.9071C39.039 20.543 38.3964 20.361 37.572 20.361C36.9716 20.361 36.4709 20.5045 36.0701 20.7915C35.6652 21.0828 35.4641 21.4369 35.4641 21.862V21.862ZM49.0265 16.4459L44.0911 27.6923H42.5653L44.3968 23.7572L41.1515 16.4459H42.758L45.1037 22.0532H45.1358L47.4171 16.4459H49.0265Z" fill="white"/>
<path d="M21.9568 18.6361C21.9573 18.1895 21.9193 17.7436 21.8429 17.3035H15.6094V19.8276H19.1797C19.1066 20.2308 18.952 20.6151 18.7251 20.9574C18.4982 21.2997 18.2038 21.5929 17.8595 21.8193V23.4578H19.9903C21.2379 22.3172 21.9568 20.6305 21.9568 18.6361Z" fill="#4285F4"/>
<path d="M15.6099 25.0408C17.3937 25.0408 18.8956 24.46 19.9908 23.4587L17.8601 21.8203C17.267 22.219 16.5032 22.4465 15.6099 22.4465C13.8858 22.4465 12.4224 21.2941 11.8992 19.7412H9.7041V21.4298C10.2543 22.5152 11.0979 23.4277 12.1407 24.0654C13.1836 24.703 14.3847 25.0407 15.6099 25.0408V25.0408Z" fill="#34A853"/>
<path d="M11.8989 19.7414C11.6223 18.9277 11.6223 18.0465 11.8989 17.2327V15.5442H9.70384C9.24103 16.4573 9 17.4651 9 18.4871C9 19.5091 9.24103 20.5169 9.70384 21.43L11.8989 19.7414Z" fill="#FBBC04"/>
<path d="M15.6099 14.5273C16.5526 14.512 17.4634 14.8652 18.1456 15.5104L20.0322 13.6398C18.8359 12.5257 17.251 11.914 15.6099 11.933C14.3847 11.9331 13.1836 12.2708 12.1407 12.9085C11.0979 13.5461 10.2543 14.4586 9.7041 15.5441L11.8992 17.2326C12.4224 15.6797 13.8858 14.5273 15.6099 14.5273V14.5273Z" fill="#EA4335"/>
</svg>
