<svg width="22" height="23" viewBox="0 0 22 23" fill="none" xmlns="http://www.w3.org/2000/svg">
<path d="M16 1.69238H6C3.23858 1.69238 1 3.93096 1 6.69238V16.6924C1 19.4538 3.23858 21.6924 6 21.6924H16C18.7614 21.6924 21 19.4538 21 16.6924V6.69238C21 3.93096 18.7614 1.69238 16 1.69238Z" stroke="white" stroke-width="1.5" stroke-linecap="round" stroke-linejoin="round"/>
<path d="M15.0002 11.0624C15.1236 11.8947 14.9815 12.7447 14.594 13.4915C14.2065 14.2383 13.5933 14.8439 12.8418 15.2221C12.0903 15.6004 11.2386 15.732 10.408 15.5984C9.57732 15.4647 8.80996 15.0725 8.21503 14.4776C7.62011 13.8827 7.22793 13.1153 7.09426 12.2847C6.9606 11.454 7.09226 10.6023 7.47052 9.85081C7.84878 9.09929 8.45438 8.48618 9.20118 8.09868C9.94798 7.71118 10.7979 7.56903 11.6302 7.69244C12.4791 7.81832 13.265 8.2139 13.8719 8.82075C14.4787 9.42759 14.8743 10.2135 15.0002 11.0624Z" stroke="white" stroke-width="1.5" stroke-linecap="round" stroke-linejoin="round"/>
<path d="M16.5 6.19238H16.51" stroke="white" stroke-width="1.5" stroke-linecap="round" stroke-linejoin="round"/>
</svg>
