<svg width="120" height="54" viewBox="0 0 120 54" fill="none" xmlns="http://www.w3.org/2000/svg">
<g clip-path="url(#clip0_215_6064)">
<path d="M42.51 27.0889C42.51 27.9776 42.2939 28.8664 41.8256 29.7907C41.3572 30.715 40.7808 31.6392 40.1324 32.528C39.4839 33.4167 38.7634 34.3055 38.0429 35.0876C37.3224 35.9052 36.674 36.6518 36.1336 37.2917C36.6019 38.0026 37.1423 38.9269 37.8268 40.0645C38.5112 41.2377 39.1597 42.4464 39.7721 43.7617C40.3845 45.077 40.8889 46.3213 41.3572 47.5655C41.7895 48.8098 42.0057 49.8407 42.0057 50.6583C42.0057 51.3338 41.7895 51.9381 41.3933 52.5069C40.961 53.0757 40.3845 53.3246 39.664 53.3246C39.1237 53.3246 38.5473 53.1113 38.0069 52.6491C37.4305 52.187 36.8901 51.5826 36.3137 50.8361C35.7373 50.0895 35.1969 49.2719 34.6926 48.3476C34.1882 47.4233 33.7199 46.5346 33.2516 45.6458C32.8193 44.7571 32.423 43.9394 32.0987 43.1574C31.7745 42.3753 31.4863 41.7354 31.3062 41.2732C30.8739 41.6998 30.4416 42.0198 29.9733 42.3042C29.5049 42.5886 29.0366 42.873 28.6043 43.2285C28.6043 43.9039 28.5683 44.8282 28.5322 46.0369C28.4962 47.2456 28.3521 48.4187 28.0999 49.6274C27.8478 50.8005 27.4515 51.8315 26.9111 52.6847C26.3707 53.5734 25.5422 54 24.4974 54C23.6688 54 23.0204 53.609 22.5521 52.898C22.0837 52.1514 21.7595 51.2627 21.5794 50.2673C21.3632 49.2719 21.2552 48.241 21.2191 47.21C21.1831 46.1791 21.1831 45.397 21.1831 44.8637C21.1831 42.5175 21.2552 40.1712 21.3632 37.8249C21.5073 35.4786 21.5794 33.1323 21.6154 30.7861C21.6154 30.2528 21.6154 29.5418 21.6514 28.6531C21.6514 27.7643 21.7235 26.84 21.8316 25.8091C21.9396 24.7782 22.0837 23.7472 22.2639 22.7163C22.444 21.6853 22.7322 20.7255 23.0924 19.8723C23.4527 19.0191 23.921 18.3437 24.4614 17.8104C25.0378 17.2772 25.7223 17.0283 26.5148 17.0283C27.0912 17.0283 27.5956 17.2416 27.9919 17.6682C28.3881 18.0948 28.7124 18.6281 28.9646 19.3035C29.2167 19.9789 29.3969 20.7255 29.5049 21.5431C29.613 22.3608 29.6851 23.1784 29.7571 23.9961C29.7931 24.8137 29.8292 25.5602 29.8292 26.2712C29.8292 26.9822 29.8292 27.5155 29.8292 27.9421C29.8292 28.2265 29.8292 28.6531 29.7931 29.2219C29.7931 29.7907 29.7571 30.3595 29.7571 30.9638C29.7571 31.5681 29.7211 32.1369 29.7211 32.6346C29.7211 33.1323 29.7571 33.5234 29.8292 33.7367C30.0453 33.7367 30.4056 33.5234 30.8379 33.0968C31.2702 32.6702 31.8105 32.1369 32.423 31.4615C33.0354 30.7861 33.6478 30.0751 34.3683 29.3285C35.0528 28.582 35.7733 27.871 36.4938 27.1955C37.2143 26.5201 37.9348 25.9868 38.6553 25.5602C39.3758 25.1337 40.0243 24.9204 40.6367 24.9204C41.2852 24.9204 41.7895 25.1337 42.1498 25.5958C42.3299 25.9868 42.51 26.4845 42.51 27.0889Z" fill="#EE7333"/>
<path d="M52.5612 35.6564C52.5612 36.1185 52.5612 36.5807 52.5612 37.0783C52.5612 37.576 52.5612 38.0382 52.5252 38.5003C52.4892 39.0336 52.4892 39.7801 52.4892 40.6689C52.4892 41.5576 52.4532 42.553 52.3811 43.5839C52.3091 44.6149 52.201 45.6814 52.0569 46.7834C51.9128 47.8499 51.6606 48.8453 51.3724 49.734C51.0482 50.6228 50.6159 51.3338 50.0755 51.9026C49.5351 52.4714 48.8867 52.7558 48.0581 52.7913C47.4457 52.8269 46.9413 52.578 46.509 52.0803C46.0767 51.5826 45.7525 50.9072 45.4643 50.0895C45.1761 49.2719 44.9959 48.3832 44.8518 47.3878C44.7077 46.3924 44.6357 45.4325 44.5636 44.4727C44.4916 43.5484 44.4556 42.6597 44.4556 41.8776C44.4556 41.0955 44.4556 40.4911 44.4556 40.1001C44.4556 39.6024 44.4556 38.8558 44.4556 37.9315C44.4556 37.0072 44.4916 35.9763 44.5636 34.9098C44.6357 33.8433 44.7438 32.7413 44.9239 31.6392C45.104 30.5372 45.3562 29.5063 45.6804 28.582C46.0047 27.6577 46.473 26.9111 47.0134 26.3423C47.5537 25.7735 48.2382 25.4891 49.1028 25.4891C49.9674 25.4891 50.6159 25.9157 51.0842 26.7689C51.5165 27.6221 51.8768 28.6175 52.0929 29.7551C52.3091 30.8927 52.4532 32.0303 52.4892 33.1679C52.5252 34.2699 52.5612 35.1231 52.5612 35.6564ZM52.165 19.4457C52.165 19.9078 52.0569 20.2989 51.8047 20.6544C51.5525 21.0099 51.2643 21.3298 50.8681 21.5787C50.4718 21.8631 50.0755 22.0408 49.6072 22.183C49.1388 22.3252 48.7426 22.3963 48.3463 22.3963C47.6978 22.3963 47.1214 22.2541 46.6531 21.9342C46.1848 21.6142 45.9326 21.1165 45.9326 20.4411C45.9326 19.9789 46.0407 19.5523 46.2929 19.1613C46.545 18.8058 46.8332 18.4858 47.1935 18.2725C47.5537 18.0237 47.95 17.846 48.4183 17.7393C48.8867 17.5971 49.319 17.5616 49.7152 17.5616C50.3277 17.5616 50.9041 17.7038 51.4084 17.9881C51.9128 18.2725 52.165 18.7347 52.165 19.4457Z" fill="#EE7333"/>
<path d="M78.8233 36.9717C78.8233 37.896 78.7512 38.9269 78.6071 40.1001C78.463 41.2732 78.2469 42.4464 77.9226 43.655C77.5984 44.8637 77.2021 46.0369 76.6978 47.1745C76.1934 48.312 75.581 49.343 74.8605 50.2317C74.14 51.1205 73.3114 51.867 72.3387 52.4003C71.4021 52.9335 70.2853 53.2179 69.0244 53.2179C67.6915 53.2179 66.5027 52.898 65.4219 52.3292C64.3411 51.7248 63.4045 50.9072 62.6479 49.8407C62.5399 50.6939 62.1796 51.4404 61.6032 52.1159C60.9908 52.7558 60.2343 53.0757 59.2976 53.0757C58.7572 53.0757 58.2889 52.7913 57.9286 52.2581C57.5684 51.7248 57.2442 51.0138 57.028 50.1962C56.8119 49.343 56.6317 48.4187 56.5237 47.4233C56.4156 46.3924 56.3435 45.4325 56.3075 44.4727C56.2715 43.5128 56.2715 42.6596 56.2715 41.9131C56.2715 41.1666 56.2715 40.5978 56.2715 40.2778C56.2715 39.2113 56.2715 38.1093 56.3075 37.0428C56.3075 35.9763 56.3435 34.8743 56.3796 33.7722C56.3796 33.239 56.3796 32.4213 56.3435 31.3548C56.3435 30.2884 56.3435 29.0797 56.3796 27.7643C56.4156 26.449 56.4876 25.0981 56.5957 23.7117C56.7038 22.3252 56.9199 21.081 57.2081 19.9078C57.4963 18.7347 57.8926 17.8104 58.433 17.0994C58.9374 16.3529 59.6218 15.9974 60.4144 15.9618C61.0628 15.9618 61.6032 16.1751 62.0715 16.6373C62.5038 17.0994 62.9001 17.6682 63.1883 18.4148C63.4765 19.1613 63.7287 19.9789 63.9088 20.8677C64.089 21.7564 64.197 22.6807 64.3051 23.5695C64.3772 24.4582 64.4492 25.3469 64.4492 26.129C64.4492 26.9467 64.4852 27.5866 64.4852 28.1198C64.4852 28.2265 64.4852 28.4398 64.4492 28.7597C64.4492 29.0797 64.4132 29.4352 64.4132 29.8262C64.4132 30.2173 64.4132 30.5372 64.4132 30.8571C64.4132 31.1771 64.4132 31.3193 64.4132 31.3548C64.7014 30.7505 65.1337 30.1462 65.6741 29.5774C66.2144 29.0086 66.8269 28.5109 67.5114 28.0487C68.1958 27.5866 68.8803 27.2311 69.6368 26.9467C70.3934 26.6623 71.0779 26.5201 71.7623 26.5201C73.1313 26.5201 74.2481 26.8756 75.1847 27.551C76.0854 28.2265 76.8419 29.1152 77.3823 30.1462C77.9226 31.1771 78.3189 32.3147 78.5351 33.5589C78.7152 34.7676 78.8233 35.9052 78.8233 36.9717ZM71.7263 38.4292C71.7263 38.0382 71.6903 37.6471 71.6543 37.185C71.6182 36.7228 71.5102 36.3318 71.33 35.9408C71.1499 35.5497 70.8977 35.2298 70.6095 34.9809C70.2853 34.7321 69.925 34.5899 69.4207 34.5899C68.9163 34.5899 68.412 34.6965 67.9076 34.9098C67.4033 35.1231 66.935 35.4075 66.4666 35.763C65.9983 36.1185 65.602 36.474 65.2057 36.865C64.8095 37.2561 64.4852 37.6471 64.197 38.0382L63.7287 42.2686C64.2331 43.0151 64.8815 43.5839 65.602 44.0105C66.3586 44.4371 67.1871 44.6504 68.1238 44.6504C68.8443 44.6504 69.4207 44.4371 69.889 43.975C70.3573 43.5128 70.7176 42.9796 71.0058 42.3397C71.294 41.6998 71.4741 40.9888 71.5822 40.2778C71.6543 39.6024 71.7263 38.9625 71.7263 38.4292Z" fill="#EE7333"/>
<path d="M102.924 39.0691C102.924 40.8111 102.744 42.553 102.384 44.2594C102.024 45.9658 101.447 47.4944 100.583 48.8453C99.754 50.1962 98.6372 51.2982 97.2322 52.1159C95.8272 52.9335 94.098 53.3601 92.0086 53.3601C89.9551 53.3601 88.2259 52.9691 86.857 52.1514C85.488 51.3338 84.3712 50.2673 83.5426 48.9519C82.7141 47.6011 82.1377 46.108 81.8134 44.4371C81.4892 42.7663 81.3091 41.0244 81.3091 39.2824C81.3091 37.3627 81.5252 35.4786 81.9936 33.5945C82.1016 33.0968 82.2818 32.3858 82.5339 31.4615C82.8221 30.5727 83.1464 29.684 83.5787 28.7953C84.011 27.9065 84.5153 27.16 85.0917 26.5201C85.6681 25.8802 86.2806 25.5602 86.965 25.5602C87.6135 25.5602 88.1178 25.738 88.5141 26.0935C88.9104 26.449 89.1986 26.8756 89.4148 27.4088C89.6309 27.9421 89.775 28.4753 89.8471 29.0797C89.9191 29.684 89.9551 30.1817 89.9551 30.6794C89.9551 31.4259 89.8831 32.1369 89.775 32.8124C89.6669 33.5234 89.5589 34.1988 89.4148 34.9098C89.2707 35.8697 89.1626 36.8295 89.0545 37.7538C88.9464 38.7136 88.8744 39.6735 88.8744 40.5978C88.8744 41.0599 88.9104 41.5932 88.9464 42.1975C88.9825 42.8018 89.1266 43.3351 89.3067 43.9039C89.4868 44.4371 89.775 44.8993 90.1353 45.2548C90.4955 45.6103 90.9999 45.788 91.6483 45.788C92.4769 45.788 93.1614 45.5747 93.6657 45.1126C94.1701 44.6504 94.5303 44.1172 94.7825 43.4417C95.0347 42.7663 95.1788 42.0553 95.2508 41.3088C95.3229 40.5622 95.3589 39.8512 95.3589 39.2113C95.3589 37.8249 95.2508 36.4384 95.0707 35.0876C94.8906 33.7367 94.7105 32.3502 94.5303 30.9638C94.4943 30.8216 94.4943 30.5727 94.4943 30.2884C94.4943 29.8262 94.5664 29.3285 94.7465 28.8664C94.8906 28.4042 95.1428 27.9776 95.431 27.5866C95.7192 27.1955 96.0794 26.9111 96.4757 26.6623C96.908 26.4134 97.3763 26.3068 97.8807 26.3068C98.6012 26.3068 99.2136 26.5556 99.754 27.0533C100.294 27.551 100.763 28.1909 101.123 28.973C101.483 29.7551 101.807 30.6083 102.024 31.6037C102.276 32.5635 102.456 33.5234 102.6 34.4477C102.744 35.372 102.852 36.2607 102.888 37.0783C102.888 37.9671 102.924 38.607 102.924 39.0691Z" fill="#EE7333"/>
<path d="M120 26.4846C120 27.4088 119.676 28.0843 119.064 28.5464C118.451 29.0086 117.731 29.3996 116.974 29.8262C116.218 30.2173 115.497 30.6794 114.885 31.2482C114.272 31.7815 113.948 32.5991 113.948 33.6656C113.948 34.2344 114.092 34.7321 114.344 35.1587C114.633 35.5853 114.957 35.9408 115.353 36.2607C115.749 36.5807 116.182 36.9362 116.686 37.2917C117.154 37.6472 117.623 38.0382 118.019 38.5004C118.415 38.9625 118.775 39.4957 119.028 40.1356C119.316 40.7755 119.424 41.5576 119.424 42.4819C119.424 43.8328 119.064 45.1126 118.379 46.4279C117.695 47.7077 116.794 48.8453 115.713 49.8763C114.633 50.8717 113.408 51.6893 112.075 52.2936C110.706 52.898 109.373 53.1824 108.076 53.1824C107.536 53.1824 106.995 53.1468 106.419 53.0757C105.878 53.0046 105.374 52.8624 104.942 52.6136C104.509 52.4003 104.149 52.0803 103.861 51.6893C103.573 51.2983 103.429 50.765 103.429 50.1251C103.429 49.2364 103.609 48.5609 103.969 48.0632C104.329 47.5655 104.762 47.1745 105.338 46.8901C105.878 46.6057 106.455 46.3924 107.103 46.2146C107.716 46.0724 108.328 45.8591 108.869 45.6103C109.409 45.3615 109.877 45.0771 110.237 44.686C110.598 44.295 110.778 43.7617 110.778 43.0507C110.778 42.3753 110.526 41.6998 109.985 40.9888C109.445 40.2778 108.869 39.4957 108.22 38.7137C107.572 37.896 106.995 37.0428 106.455 36.1185C105.914 35.1942 105.662 34.1988 105.662 33.0613C105.662 31.7104 105.95 30.4306 106.491 29.2574C107.067 28.0843 107.824 27.0889 108.76 26.2357C109.697 25.3825 110.814 24.7071 112.003 24.2094C113.228 23.7117 114.524 23.4628 115.857 23.4628C116.362 23.4628 116.866 23.4984 117.37 23.605C117.875 23.7117 118.307 23.8539 118.703 24.1027C119.1 24.3516 119.388 24.6715 119.64 25.0626C119.892 25.3825 120 25.9158 120 26.4846Z" fill="#EE7333"/>
<path d="M41.4291 12.9401C45.0503 12.9401 47.9857 10.0434 47.9857 6.47005C47.9857 2.89674 45.0503 0 41.4291 0C37.808 0 34.8726 2.89674 34.8726 6.47005C34.8726 10.0434 37.808 12.9401 41.4291 12.9401Z" fill="#EE7333"/>
<path d="M25.0737 14.2199C28.6948 14.2199 31.6303 11.3231 31.6303 7.74983C31.6303 4.17652 28.6948 1.27979 25.0737 1.27979C21.4526 1.27979 18.5171 4.17652 18.5171 7.74983C18.5171 11.3231 21.4526 14.2199 25.0737 14.2199Z" fill="#EE7333"/>
<path d="M11.9604 23.3561C15.5815 23.3561 18.517 20.4594 18.517 16.8861C18.517 13.3128 15.5815 10.416 11.9604 10.416C8.33929 10.416 5.40381 13.3128 5.40381 16.8861C5.40381 20.4594 8.33929 23.3561 11.9604 23.3561Z" fill="#EE7333"/>
<path d="M6.55659 37.9671C10.1777 37.9671 13.1132 35.0703 13.1132 31.497C13.1132 27.9237 10.1777 25.027 6.55659 25.027C2.93549 25.027 0 27.9237 0 31.497C0 35.0703 2.93549 37.9671 6.55659 37.9671Z" fill="#EE7333"/>
</g>
<defs>
<clipPath id="clip0_215_6064">
<rect width="120" height="54" fill="white"/>
</clipPath>
</defs>
</svg>
