<svg width="58" height="37" viewBox="0 0 58 37" fill="none" xmlns="http://www.w3.org/2000/svg">
<rect x="0.4" y="1.09238" width="57.2" height="35.2" rx="4.6" stroke="white" stroke-opacity="0.4" stroke-width="0.8"/>
<path d="M32.4692 11.6074H24.5298V25.6893H32.4692V11.6074Z" fill="#FF5F00"/>
<path d="M25.0344 18.65C25.033 17.2936 25.3442 15.9547 25.9447 14.7346C26.5451 13.5145 27.4189 12.4452 28.5 11.6078C27.1615 10.5695 25.5539 9.9239 23.8612 9.74469C22.1684 9.56548 20.4587 9.85991 18.9274 10.5943C17.3962 11.3287 16.1052 12.4735 15.202 13.8978C14.2988 15.3221 13.8198 16.9685 13.8198 18.6487C13.8198 20.329 14.2988 21.9753 15.202 23.3996C16.1052 24.8239 17.3962 25.9687 18.9274 26.7031C20.4587 27.4375 22.1684 27.732 23.8612 27.5528C25.5539 27.3735 27.1615 26.7279 28.5 25.6897C27.4193 24.8525 26.5456 23.7836 25.9452 22.564C25.3448 21.3444 25.0333 20.0059 25.0344 18.65V18.65Z" fill="#EB001B"/>
<path d="M43.1815 18.6498C43.1815 20.3302 42.7024 21.9766 41.799 23.401C40.8957 24.8253 39.6045 25.9701 38.0731 26.7044C36.5416 27.4387 34.8317 27.7329 33.1389 27.5535C31.446 27.374 29.8385 26.7281 28.5 25.6895C29.5803 24.8516 30.4537 23.7824 31.0543 22.5627C31.6549 21.343 31.9669 20.0046 31.9669 18.6485C31.9669 17.2924 31.6549 15.9541 31.0543 14.7344C30.4537 13.5147 29.5803 12.4455 28.5 11.6076C29.8385 10.569 31.446 9.92308 33.1389 9.74361C34.8317 9.56414 36.5416 9.85838 38.0731 10.5927C39.6045 11.327 40.8957 12.4718 41.799 13.8961C42.7024 15.3205 43.1815 16.9669 43.1815 18.6473V18.6498Z" fill="#F79E1B"/>
</svg>
