<svg width="58" height="37" viewBox="0 0 58 37" fill="none" xmlns="http://www.w3.org/2000/svg">
<rect x="0.4" y="1.09238" width="57.2" height="35.2" rx="4.6" stroke="white" stroke-opacity="0.4" stroke-width="0.8"/>
<path d="M25.8431 24.4924H22.5792L24.6191 12.8995H27.8833L25.8431 24.4924ZM19.8334 12.8995L16.7218 20.8732L16.3536 19.1561L16.3539 19.1568L15.2557 13.9433C15.2557 13.9433 15.1229 12.8995 13.7074 12.8995H8.56329L8.50293 13.0958C8.50293 13.0958 10.076 13.3985 11.917 14.4209L14.7527 24.4927H18.1534L23.3462 12.8995H19.8334V12.8995ZM45.5055 24.4924H48.5025L45.8895 12.8992H43.2658C42.0542 12.8992 41.7591 13.7632 41.7591 13.7632L36.8913 24.4924H40.2936L40.974 22.7704H45.1232L45.5055 24.4924ZM41.914 20.3916L43.6289 16.0533L44.5937 20.3916H41.914ZM37.1465 15.6873L37.6122 13.1978C37.6122 13.1978 36.175 12.6924 34.6767 12.6924C33.057 12.6924 29.2106 13.347 29.2106 16.5302C29.2106 19.5252 33.725 19.5624 33.725 21.1355C33.725 22.7087 29.6757 22.4268 28.3394 21.4348L27.8541 24.0378C27.8541 24.0378 29.3115 24.6924 31.5382 24.6924C33.7655 24.6924 37.1257 23.6259 37.1257 20.7234C37.1257 17.7092 32.5707 17.4286 32.5707 16.1181C32.5711 14.8073 35.7498 14.9757 37.1465 15.6873V15.6873Z" fill="#2566AF"/>
<path d="M16.3539 19.1564L15.2557 13.943C15.2557 13.943 15.1229 12.8992 13.7074 12.8992H8.56329L8.50293 13.0955C8.50293 13.0955 10.9754 13.5693 13.3469 15.3446C15.6145 17.0415 16.3539 19.1564 16.3539 19.1564Z" fill="#E6A540"/>
</svg>
