<svg width="28" height="23" viewBox="0 0 28 23" fill="none" xmlns="http://www.w3.org/2000/svg">
<path d="M26.4557 4.82304C26.3153 4.20908 26.0294 3.64655 25.6269 3.19226C25.2244 2.73797 24.7194 2.40802 24.1631 2.23572C22.1305 1.69238 14 1.69238 14 1.69238C14 1.69238 5.86951 1.69238 3.83689 2.28747C3.28058 2.45976 2.77565 2.78972 2.3731 3.24401C1.97056 3.6983 1.68466 4.26083 1.54428 4.87479C1.17228 7.13295 0.990319 9.4237 1.00068 11.7183C0.987415 14.0301 1.16939 16.3383 1.54428 18.6135C1.69905 19.2084 1.99135 19.7495 2.39296 20.1846C2.79456 20.6197 3.29189 20.9341 3.83689 21.0973C5.86951 21.6924 14 21.6924 14 21.6924C14 21.6924 22.1305 21.6924 24.1631 21.0973C24.7194 20.925 25.2244 20.595 25.6269 20.1408C26.0294 19.6865 26.3153 19.1239 26.4557 18.51C26.8249 16.2688 27.0068 13.9955 26.9993 11.7183C27.0126 9.40643 26.8306 7.0982 26.4557 4.82304V4.82304Z" stroke="white" stroke-width="1.5" stroke-linecap="round" stroke-linejoin="round"/>
<path d="M11 15.6924L18 11.6924L11 7.69238V15.6924Z" stroke="white" stroke-width="1.5" stroke-linecap="round" stroke-linejoin="round"/>
</svg>
